<?xml version="1.0" encoding="UTF-8" standalone="no"?>
<!-- Created with Inkscape (http://www.inkscape.org/) -->

<svg
   xmlns:dc="http://purl.org/dc/elements/1.1/"
   xmlns:cc="http://creativecommons.org/ns#"
   xmlns:rdf="http://www.w3.org/1999/02/22-rdf-syntax-ns#"
   xmlns:svg="http://www.w3.org/2000/svg"
   xmlns="http://www.w3.org/2000/svg"
   xmlns:sodipodi="http://sodipodi.sourceforge.net/DTD/sodipodi-0.dtd"
   xmlns:inkscape="http://www.inkscape.org/namespaces/inkscape"
   width="100"
   height="83"
   viewBox="0 0 100 83.000008"
   id="svg2"
   version="1.1"
   inkscape:version="0.92.3 (2405546, 2018-03-11)"
   sodipodi:docname="Discovery Civilization logo.svg">
  <title
     id="title4161">Unad (Colombia) logo</title>
  <defs
     id="defs4">
    <pattern
       y="0"
       x="0"
       height="6"
       width="6"
       patternUnits="userSpaceOnUse"
       id="EMFhbasepattern" />
  </defs>
  <sodipodi:namedview
     id="base"
     pagecolor="#ffffff"
     bordercolor="#666666"
     borderopacity="1.0"
     inkscape:pageopacity="0.0"
     inkscape:pageshadow="2"
     inkscape:zoom="6.0590319"
     inkscape:cx="61.35325"
     inkscape:cy="31.290556"
     inkscape:document-units="px"
     inkscape:current-layer="layer1"
     showgrid="false"
     units="px"
     inkscape:showpageshadow="false"
     inkscape:window-width="1366"
     inkscape:window-height="705"
     inkscape:window-x="-8"
     inkscape:window-y="-8"
     inkscape:window-maximized="1" />
  <metadata
     id="metadata7">
    <rdf:RDF>
      <cc:Work
         rdf:about="">
        <dc:format>image/svg+xml</dc:format>
        <dc:type
           rdf:resource="http://purl.org/dc/dcmitype/StillImage" />
        <dc:title>Unad (Colombia) logo</dc:title>
        <cc:license
           rdf:resource="http://scripts.sil.org/OFL" />
      </cc:Work>
      <cc:License
         rdf:about="http://scripts.sil.org/OFL">
        <cc:permits
           rdf:resource="http://scripts.sil.org/pub/OFL/Reproduction" />
        <cc:permits
           rdf:resource="http://scripts.sil.org/pub/OFL/Distribution" />
        <cc:permits
           rdf:resource="http://scripts.sil.org/pub/OFL/Embedding" />
        <cc:permits
           rdf:resource="http://scripts.sil.org/pub/OFL/DerivativeWorks" />
        <cc:requires
           rdf:resource="http://scripts.sil.org/pub/OFL/Notice" />
        <cc:requires
           rdf:resource="http://scripts.sil.org/pub/OFL/Attribution" />
        <cc:requires
           rdf:resource="http://scripts.sil.org/pub/OFL/ShareAlike" />
        <cc:requires
           rdf:resource="http://scripts.sil.org/pub/OFL/DerivativeRenaming" />
        <cc:requires
           rdf:resource="http://scripts.sil.org/pub/OFL/BundlingWhenSelling" />
      </cc:License>
    </rdf:RDF>
  </metadata>
  <g
     inkscape:label="Capa 1"
     inkscape:groupmode="layer"
     id="layer1"
     transform="translate(0,-969.3622)">
    <g
       transform="matrix(0.20851718,0,0,0.20851718,-13.723637,928.54639)"
       id="Layer1000-0">
      <path
         id="path4-4"
         style="fill:#1b1918;fill-rule:evenodd"
         d="m 204.1909,283.9269 v -5.0865 h 65.6585 v 5.0865 h -7.0003 c -7.2796,0 -12.8793,3.0334 -16.7995,9.1463 -1.9128,2.8467 -2.8933,9.3797 -2.8933,19.6928 v 75.1779 c 0,18.6197 -1.8196,33.0393 -5.506,43.2587 -3.6869,10.2665 -10.9665,19.0864 -21.7463,26.4126 -10.8263,7.3267 -25.5258,11.0131 -44.0989,11.0131 -20.2526,0 -35.6055,-3.4996 -46.0583,-10.5465 -10.4998,-6.9997 -17.9197,-16.4259 -22.3061,-28.2788 -2.8932,-8.1198 -4.3869,-23.3331 -4.3869,-45.6857 v -72.4709 c 0,-11.3867 -1.5398,-18.8531 -4.7129,-22.3998 -3.1266,-3.5467 -8.213,-5.3197 -15.2132,-5.3197 h -6.9998 v -5.0865 h 80.1246 v 5.0865 h -7.0934 c -7.6531,0 -13.1592,2.38 -16.4259,7.233 -2.2869,3.2668 -3.4065,10.1263 -3.4065,20.4865 v 80.8241 c 0,7.1865 0.6529,15.446 1.9598,24.7326 1.3535,9.2866 3.733,16.5662 7.1865,21.7463 3.4531,5.1796 8.4464,9.4728 14.9794,12.8327 6.5331,3.4065 14.5132,5.0865 23.9861,5.0865 12.1332,0 22.9595,-2.6599 32.526,-7.9331 9.566,-5.2732 16.1461,-12.0396 19.6457,-20.2992 3.5001,-8.2601 5.2732,-22.2129 5.2732,-41.9057 v -75.0842 c 0,-11.5734 -1.3064,-18.8065 -3.8266,-21.6997 -3.5932,-4.0134 -8.8664,-6.0198 -15.8662,-6.0198 z"
         inkscape:connector-curvature="0" />
      <path
         id="path6-4"
         style="fill:#f4ac27;fill-rule:evenodd"
         d="m 414.3112,354.6194 h -31.0456 l -4.271,14.5576 h -27.8423 l 33.1398,-88.1883 h 29.7106 l 33.1605,88.1883 h -28.5196 z m -5.7081,-19.0748 -9.7533,-31.7027 -9.6913,31.7027 z m 47.6356,-54.5559 h 40.4908 c 7.9665,0 14.4138,1.0884 19.3415,3.2445 4.9076,2.1763 8.9728,5.2769 12.1761,9.3215 3.2033,4.0658 5.5235,8.7675 6.9812,14.1471 1.4371,5.3796 2.1556,11.0671 2.1556,17.0837 0,9.4241 -1.0672,16.7339 -3.2234,21.9288 -2.1355,5.1949 -5.1129,9.5475 -8.9315,13.0381 -3.7986,3.5112 -7.885,5.852 -12.2581,7.0224 -5.9754,1.6017 -11.3957,2.4022 -16.2414,2.4022 h -40.4908 z m 27.247,19.9785 v 48.17 h 6.6732 c 5.7082,0 9.7528,-0.6159 12.1555,-1.889 2.4022,-1.2524 4.2912,-3.47 5.6669,-6.6119 1.355,-3.1414 2.0328,-8.2537 2.0328,-15.3175 0,-9.3421 -1.5196,-15.728 -4.5583,-19.1774 -3.0594,-3.4493 -8.1104,-5.1742 -15.1736,-5.1742 z"
         inkscape:connector-curvature="0" />
      <path
         id="path8-5"
         style="fill:#1b1918;fill-rule:evenodd"
         d="m 264.8582,279.1326 h 24.5677 l 55.3576,67.9146 v -52.2125 c 0,-5.5607 -0.6385,-9.0476 -1.8692,-10.415 -1.6635,-1.8686 -4.2616,-2.8032 -7.8168,-2.8032 h -3.1451 v -2.4839 h 31.5189 v 2.4839 h -3.2134 c -3.8288,0 -6.541,1.1623 -8.1361,3.4643 -0.9798,1.4358 -1.4584,4.6718 -1.4584,9.7539 v 76.3016 h -2.4162 l -59.6875,-72.9057 v 55.7678 c 0,5.5607 0.5927,9.025 1.8007,10.415 1.6862,1.8686 4.3074,2.8032 7.8169,2.8032 h 3.1908 v 2.4613 h -31.4962 v -2.4613 h 3.1224 c 3.874,0 6.6088,-1.1623 8.2271,-3.4869 0.9798,-1.4132 1.4584,-4.6718 1.4584,-9.7313 v -62.9693 c -2.6207,-3.0767 -4.6261,-5.1052 -5.9709,-6.085 -1.3674,-0.9804 -3.3501,-1.8918 -5.9708,-2.7349 -1.2991,-0.3876 -3.2592,-0.5927 -5.8799,-0.5927 z"
         inkscape:connector-curvature="0" />
      <path
         id="path10-0"
         style="fill:none"
         d="m 161.5211,258.8413 a 6.7558,6.7558 0 0 1 6.7558,6.7558 6.7558,6.7558 0 1 1 -6.7558,-6.7558 z"
         inkscape:connector-curvature="0" />
      <path
         id="path12-6"
         style="fill:none"
         d="m 236.0847,239.8396 a 6.7558,6.7558 0 0 1 6.7558,6.7558 6.7558,6.7558 0 1 1 -6.7558,-6.7558 z"
         inkscape:connector-curvature="0" />
      <path
         id="path14-4"
         style="fill:none"
         d="m 253.6895,259.908 a 6.7558,6.7558 0 0 1 6.7558,6.7558 6.7558,6.7558 0 1 1 -6.7558,-6.7558 z"
         inkscape:connector-curvature="0" />
      <path
         id="path16-1"
         style="fill:none"
         d="m 176.6793,239.6745 a 6.7558,6.7558 0 0 1 6.7558,6.7558 6.7558,6.7558 0 1 1 -6.7558,-6.7558 z"
         inkscape:connector-curvature="0" />
      <path
         id="path18-5"
         style="fill:none"
         d="m 207.2498,231.6954 a 6.7558,6.7558 0 0 1 6.7558,6.7558 6.7558,6.7558 0 1 1 -6.7558,-6.7558 z"
         inkscape:connector-curvature="0" />
      <path
         id="path20-8"
         style="fill:#f07c00;fill-rule:evenodd"
         d="m 106.0872,243.8844 c -5.205,0 -9.4266,4.6007 -9.4266,10.2731 0,5.6724 4.2216,10.2731 9.4266,10.2731 5.205,0 9.4265,-4.6007 9.4265,-10.2731 0,-5.6724 -4.2215,-10.2731 -9.4265,-10.2731 z m 63.8066,-41.279 c -5.205,0 -9.4266,4.6007 -9.4266,10.2731 0,5.6724 4.2216,10.2731 9.4266,10.2731 5.205,0 9.4266,-4.6007 9.4266,-10.2731 0,-5.6724 -4.2216,-10.2731 -9.4266,-10.2731 z m -42.6559,12.1333 c -5.205,0 -9.4266,4.6007 -9.4266,10.2731 0,5.6724 4.2216,10.2731 9.4266,10.2731 5.205,0 9.4266,-4.6007 9.4266,-10.2731 0,-5.6724 -4.2216,-10.2731 -9.4266,-10.2731 z m 107.4548,30.7678 c -5.205,0 -9.4265,4.6007 -9.4265,10.2731 0,5.6724 4.2215,10.2731 9.4265,10.2731 5.2051,0 9.4266,-4.6007 9.4266,-10.2731 0,-5.6724 -4.2215,-10.2731 -9.4266,-10.2731 z m -24.5646,-30.5167 c -5.205,0 -9.4266,4.6006 -9.4266,10.2731 0,5.6724 4.2216,10.273 9.4266,10.273 5.205,0 9.4266,-4.6006 9.4266,-10.273 0,-5.6725 -4.2216,-10.2731 -9.4266,-10.2731 z"
         inkscape:connector-curvature="0" />
      <path
         id="path22-5"
         style="fill:#f07c00;fill-rule:evenodd"
         d="m 504.203,410.3137 c 5.205,0 9.4266,-4.6007 9.4266,-10.2731 0,-5.6724 -4.2216,-10.2731 -9.4266,-10.2731 -5.205,0 -9.4266,4.6007 -9.4266,10.2731 0,5.6724 4.2216,10.2731 9.4266,10.2731 z m -63.8066,41.279 c 5.205,0 9.4266,-4.6007 9.4266,-10.2731 0,-5.6724 -4.2216,-10.2731 -9.4266,-10.2731 -5.205,0 -9.4266,4.6007 -9.4266,10.2731 0,5.6724 4.2216,10.2731 9.4266,10.2731 z m 42.6559,-12.1333 c 5.205,0 9.4266,-4.6007 9.4266,-10.2731 0,-5.6724 -4.2216,-10.2731 -9.4266,-10.2731 -5.205,0 -9.4266,4.6007 -9.4266,10.2731 0,5.6724 4.2216,10.2731 9.4266,10.2731 z M 375.5974,408.6916 c 5.205,0 9.4266,-4.6007 9.4266,-10.2731 0,-5.6724 -4.2216,-10.273 -9.4266,-10.273 -5.205,0 -9.4265,4.6006 -9.4265,10.273 0,5.6724 4.2215,10.2731 9.4265,10.2731 z m 24.5647,30.5168 c 5.205,0 9.4266,-4.6007 9.4266,-10.2731 0,-5.6724 -4.2216,-10.2731 -9.4266,-10.2731 -5.205,0 -9.4266,4.6007 -9.4266,10.2731 0,5.6724 4.2216,10.2731 9.4266,10.2731 z"
         inkscape:connector-curvature="0" />
      <path
         id="path24-1"
         style="fill:#0070b7;fill-rule:evenodd"
         d="m 95.6849,484.0219 h 4.7795 v 20.8484 c 0,3.6202 -0.4116,6.5013 -1.235,8.6347 -0.8233,2.1334 -2.3016,3.8642 -4.4435,5.1997 -2.1419,1.3439 -4.9473,2.0075 -8.4246,2.0075 -3.3769,0 -6.1489,-0.5794 -8.2908,-1.7472 -2.1504,-1.1593 -3.6875,-2.8477 -4.6028,-5.0568 -0.9244,-2.2091 -1.3779,-5.2161 -1.3779,-9.0379 v -20.8484 h 4.7711 v 20.823 c 0,3.1329 0.2942,5.4431 0.8736,6.9214 0.5794,1.4869 1.5873,2.6292 2.9985,3.4356 1.4196,0.8064 3.1583,1.2096 5.2081,1.2096 3.5113,0 6.014,-0.7979 7.5093,-2.3943 1.4868,-1.5874 2.2345,-4.6446 2.2345,-9.1723 z m 12.1628,36.077 v -26.1316 h 3.9811 v 3.7128 c 1.9239,-2.8731 4.6955,-4.3091 8.3162,-4.3091 1.5789,0 3.0239,0.2851 4.3425,0.8481 1.327,0.5715 2.3101,1.3107 2.9652,2.2345 0.6635,0.9154 1.117,2.0075 1.3858,3.2673 0.1597,0.8233 0.2439,2.2599 0.2439,4.3092 v 16.0688 h -4.4351 v -15.9006 c 0,-1.7979 -0.1683,-3.1503 -0.5127,-4.0488 -0.3445,-0.8905 -0.9577,-1.6043 -1.8313,-2.1334 -0.8815,-0.5376 -1.9064,-0.8064 -3.0911,-0.8064 -1.8895,0 -3.5107,0.6048 -4.8886,1.7974 -1.3688,1.2011 -2.0492,3.4689 -2.0492,6.8204 v 14.2714 z m 28.0466,-30.9784 v -5.0986 h 4.435 v 5.0986 z m 0,30.9784 v -26.1316 h 4.435 v 26.1316 z m 18.4377,0 -9.9454,-26.1316 h 4.6785 l 5.6108,15.6487 c 0.6048,1.6884 1.1593,3.444 1.672,5.2668 0.3947,-1.3778 0.9408,-3.0323 1.6461,-4.9726 l 5.8129,-15.9429 h 4.5526 l -9.8951,26.1316 z m 35.8245,-8.4167 4.578,0.563 c -0.7223,2.6794 -2.0578,4.7541 -4.0065,6.2325 -1.9572,1.4699 -4.452,2.2091 -7.4844,2.2091 -3.8218,0 -6.8542,-1.1757 -9.0882,-3.5277 -2.2429,-2.3519 -3.3599,-5.6531 -3.3599,-9.9035 0,-4.4012 1.1339,-7.8119 3.3933,-10.2395 2.2678,-2.4271 5.1996,-3.6451 8.8114,-3.6451 3.4943,0 6.35,1.1926 8.5596,3.5699 2.2175,2.3768 3.326,5.7283 3.326,10.0374 0,0.2688 -0.008,0.6635 -0.0254,1.1847 h -19.4875 c 0.1598,2.8726 0.9747,5.0732 2.4361,6.5934 1.4614,1.5291 3.2758,2.2932 5.46,2.2932 1.6212,0 3.007,-0.4281 4.1578,-1.2852 1.1509,-0.8482 2.0578,-2.2091 2.7297,-4.0822 z m -14.5396,-7.1648 h 14.5904 c -0.1931,-2.1927 -0.7561,-3.8472 -1.6715,-4.9393 -1.4111,-1.7049 -3.2424,-2.562 -5.4853,-2.562 -2.0329,0 -3.7462,0.6804 -5.132,2.0413 -1.3863,1.3609 -2.1503,3.1837 -2.3016,5.46 z m 24.6363,15.5815 v -26.1316 h 3.9816 v 3.9562 c 1.0165,-1.8482 1.9572,-3.0742 2.8224,-3.6626 0.8566,-0.5878 1.8058,-0.8899 2.8392,-0.8899 1.4953,0 3.007,0.4788 4.5526,1.4275 l -1.5287,4.116 c -1.0751,-0.6465 -2.1588,-0.9656 -3.2424,-0.9656 -0.9741,0 -1.8398,0.2937 -2.6123,0.8736 -0.773,0.5878 -1.3185,1.3942 -1.6466,2.427 -0.4953,1.571 -0.7392,3.2928 -0.7392,5.1664 v 13.683 z m 15.0609,-7.8035 4.3763,-0.6889 c 0.2434,1.7557 0.9323,3.0996 2.0578,4.0404 1.1175,0.9323 2.6879,1.4027 4.7123,1.4027 2.0329,0 3.5446,-0.4196 4.5277,-1.2429 0.9826,-0.8318 1.4783,-1.8059 1.4783,-2.9149 0,-1.008 -0.437,-1.789 -1.3106,-2.3689 -0.6048,-0.3947 -2.1165,-0.89 -4.5271,-1.4948 -3.2425,-0.8233 -5.5024,-1.5291 -6.7537,-2.1339 -1.2514,-0.5963 -2.2091,-1.4276 -2.8557,-2.4863 -0.6471,-1.0583 -0.9746,-2.2255 -0.9746,-3.5023 0,-1.1677 0.2688,-2.2429 0.8064,-3.234 0.5291,-0.9995 1.2598,-1.8228 2.1757,-2.4778 0.6884,-0.5043 1.6292,-0.9408 2.8139,-1.2937 1.1926,-0.3529 2.4694,-0.5291 3.8303,-0.5291 2.0492,0 3.8472,0.3021 5.4007,0.8899 1.554,0.5884 2.6964,1.3863 3.4356,2.3943 0.7391,1.0164 1.2434,2.3604 1.5206,4.0488 l -4.326,0.5963 c -0.2016,-1.3439 -0.7726,-2.3942 -1.7133,-3.1498 -0.9408,-0.7561 -2.2768,-1.1344 -3.9986,-1.1344 -2.0329,0 -3.4858,0.3359 -4.3509,1.0079 -0.8736,0.672 -1.3107,1.462 -1.3107,2.3604 0,0.5799 0.1852,1.0921 0.5461,1.5541 0.3614,0.4788 0.9238,0.8651 1.6969,1.1847 0.445,0.1592 1.7471,0.5375 3.9144,1.1254 3.1329,0.8397 5.3171,1.5202 6.5516,2.0577 1.2434,0.5292 2.2175,1.3107 2.9233,2.3271 0.7054,1.0159 1.0583,2.2763 1.0583,3.788 0,1.4783 -0.4371,2.8646 -1.2937,4.1747 -0.8651,1.3022 -2.108,2.3102 -3.7292,3.024 -1.6213,0.7143 -3.461,1.0667 -5.5103,1.0667 -3.4022,0 -5.9891,-0.7054 -7.7701,-2.1165 -1.7805,-1.4112 -2.9144,-3.5028 -3.4017,-6.2749 z m 26.9882,-23.1749 v -5.0986 h 4.4351 v 5.0986 z m 0,30.9784 v -26.1316 h 4.4351 v 26.1316 z m 28.1307,0 v -3.3012 c -1.6546,2.5954 -4.0906,3.8891 -7.3077,3.8891 -2.0831,0 -3.998,-0.571 -5.7452,-1.7218 -1.7471,-1.1424 -3.0995,-2.7467 -4.0657,-4.8134 -0.9577,-2.0577 -1.4366,-4.4181 -1.4366,-7.0976 0,-2.6038 0.4371,-4.9727 1.3022,-7.0976 0.8736,-2.1255 2.1757,-3.7547 3.9144,-4.8806 1.7387,-1.1339 3.6874,-1.7048 5.8378,-1.7048 1.5709,0 2.9736,0.3359 4.1996,0.9995 1.235,0.6635 2.2345,1.5286 3.0075,2.5953 v -12.9439 h 4.4012 v 36.077 z M 256.4309,507.054 c 0,3.3514 0.7053,5.8547 2.1165,7.5093 1.4111,1.655 3.0742,2.4863 4.998,2.4863 1.9319,0 3.5785,-0.7979 4.9304,-2.3768 1.3524,-1.5794 2.0329,-3.9986 2.0329,-7.249 0,-3.5784 -0.689,-6.1991 -2.0663,-7.8706 -1.3778,-1.68 -3.0741,-2.5117 -5.0986,-2.5117 -1.9656,0 -3.6117,0.8063 -4.9308,2.4106 -1.3186,1.6043 -1.9821,4.1414 -1.9821,7.6019 z m 42.1333,9.8194 c -1.6467,1.3942 -3.2255,2.3773 -4.7378,2.9567 -1.5201,0.5715 -3.1498,0.8567 -4.8885,0.8567 -2.8726,0 -5.0732,-0.6969 -6.6188,-2.1001 -1.5376,-1.4027 -2.3101,-3.2001 -2.3101,-5.3759 0,-1.2847 0.2857,-2.4524 0.8736,-3.5107 0.5794,-1.0588 1.3439,-1.9069 2.2847,-2.545 0.9493,-0.6387 2.0075,-1.126 3.1917,-1.4535 0.8656,-0.2265 2.1757,-0.4535 3.9313,-0.6636 3.5785,-0.4285 6.2156,-0.9323 7.904,-1.5286 0.0169,-0.6048 0.0254,-0.991 0.0254,-1.1508 0,-1.8059 -0.4201,-3.0827 -1.2598,-3.8134 -1.126,-1.008 -2.8139,-1.5037 -5.0399,-1.5037 -2.0831,0 -3.6202,0.3613 -4.6203,1.0921 -0.991,0.7307 -1.7217,2.0244 -2.2006,3.8805 l -4.3255,-0.5963 c 0.3947,-1.8482 1.0413,-3.3514 1.9403,-4.4853 0.8984,-1.1424 2.209,-2.0245 3.9139,-2.6377 1.7053,-0.6133 3.6795,-0.9238 5.9303,-0.9238 2.2345,0 4.0404,0.2687 5.4346,0.7894 1.3948,0.5291 2.4192,1.1842 3.0827,1.9821 0.6555,0.7984 1.109,1.7979 1.3778,3.016 0.1429,0.7555 0.2185,2.1164 0.2185,4.0821 v 5.905 c 0,4.1245 0.0921,6.7283 0.2852,7.8119 0.1852,1.0916 0.563,2.1419 1.1175,3.1414 h -4.6282 c -0.454,-0.9154 -0.7561,-1.9905 -0.882,-3.2255 z m -0.3699,-9.8951 c -1.6127,0.6635 -4.0234,1.2181 -7.232,1.68 -1.8228,0.2603 -3.1165,0.5545 -3.8642,0.882 -0.7555,0.3275 -1.3439,0.8064 -1.7471,1.445 -0.4111,0.6297 -0.6212,1.3271 -0.6212,2.0996 0,1.1847 0.4535,2.1673 1.344,2.9567 0.8899,0.7815 2.2006,1.1762 3.9223,1.1762 1.7054,0 3.2255,-0.3698 4.5531,-1.1175 1.327,-0.7471 2.3096,-1.772 2.9313,-3.0657 0.4789,-0.9995 0.7138,-2.4778 0.7138,-4.4266 z m 28.2989,13.1206 v -3.3012 c -1.6545,2.5954 -4.0906,3.8891 -7.3077,3.8891 -2.0831,0 -3.998,-0.571 -5.7451,-1.7218 -1.7472,-1.1424 -3.0996,-2.7467 -4.0658,-4.8134 -0.9577,-2.0577 -1.4365,-4.4181 -1.4365,-7.0976 0,-2.6038 0.437,-4.9727 1.3021,-7.0976 0.8736,-2.1255 2.1758,-3.7547 3.9144,-4.8806 1.7387,-1.1339 3.6875,-1.7048 5.8378,-1.7048 1.571,0 2.9737,0.3359 4.1996,0.9995 1.235,0.6635 2.2345,1.5286 3.0076,2.5953 v -12.9439 h 4.4012 v 36.077 z M 312.4911,507.054 c 0,3.3514 0.7053,5.8547 2.1165,7.5093 1.4112,1.655 3.0742,2.4863 4.9981,2.4863 1.9318,0 3.5784,-0.7979 4.9303,-2.3768 1.3524,-1.5794 2.0329,-3.9986 2.0329,-7.249 0,-3.5784 -0.6889,-6.1991 -2.0662,-7.8706 -1.3779,-1.68 -3.0742,-2.5117 -5.0986,-2.5117 -1.9657,0 -3.6118,0.8063 -4.9309,2.4106 -1.3186,1.6043 -1.9821,4.1414 -1.9821,7.6019 z m 39.5967,13.0449 v -36.077 h 4.897 l 18.9499,28.3238 v -28.3238 h 4.5779 v 36.077 h -4.897 l -18.9499,-28.3492 v 28.3492 z m 52.9352,-3.2255 c -1.6466,1.3942 -3.2255,2.3773 -4.7377,2.9567 -1.5202,0.5715 -3.1498,0.8567 -4.8885,0.8567 -2.8726,0 -5.0732,-0.6969 -6.6188,-2.1001 -1.5376,-1.4027 -2.3101,-3.2001 -2.3101,-5.3759 0,-1.2847 0.2857,-2.4524 0.8736,-3.5107 0.5793,-1.0588 1.3439,-1.9069 2.2847,-2.545 0.9492,-0.6387 2.0075,-1.126 3.1916,-1.4535 0.8657,-0.2265 2.1758,-0.4535 3.9314,-0.6636 3.5784,-0.4285 6.2156,-0.9323 7.904,-1.5286 0.0169,-0.6048 0.0254,-0.991 0.0254,-1.1508 0,-1.8059 -0.4201,-3.0827 -1.2598,-3.8134 -1.126,-1.008 -2.8139,-1.5037 -5.0399,-1.5037 -2.0832,0 -3.6202,0.3613 -4.6203,1.0921 -0.991,0.7307 -1.7217,2.0244 -2.2006,3.8805 l -4.3255,-0.5963 c 0.3947,-1.8482 1.0413,-3.3514 1.9402,-4.4853 0.8985,-1.1424 2.2091,-2.0245 3.9139,-2.6377 1.7054,-0.6133 3.6795,-0.9238 5.9304,-0.9238 2.2345,0 4.0404,0.2687 5.4346,0.7894 1.3948,0.5291 2.4191,1.1842 3.0826,1.9821 0.6556,0.7984 1.1091,1.7979 1.3779,3.016 0.1428,0.7555 0.2185,2.1164 0.2185,4.0821 v 5.905 c 0,4.1245 0.0921,6.7283 0.2852,7.8119 0.1852,1.0916 0.563,2.1419 1.1175,3.1414 h -4.6282 c -0.454,-0.9154 -0.7561,-1.9905 -0.8821,-3.2255 z m -0.3698,-9.8951 c -1.6128,0.6635 -4.0234,1.2181 -7.232,1.68 -1.8228,0.2603 -3.1165,0.5545 -3.8642,0.882 -0.7556,0.3275 -1.3439,0.8064 -1.7471,1.445 -0.4112,0.6297 -0.6212,1.3271 -0.6212,2.0996 0,1.1847 0.4534,2.1673 1.3439,2.9567 0.89,0.7815 2.2007,1.1762 3.9224,1.1762 1.7054,0 3.2255,-0.3698 4.5531,-1.1175 1.327,-0.7471 2.3096,-1.772 2.9313,-3.0657 0.4789,-0.9995 0.7138,-2.4778 0.7138,-4.4266 z m 28.4,3.5446 4.3509,0.5714 c -0.4704,2.9986 -1.6884,5.3505 -3.6541,7.0474 -1.9567,1.6969 -4.3679,2.5451 -7.2235,2.5451 -3.57,0 -6.4511,-1.1673 -8.6183,-3.5028 -2.1752,-2.335 -3.2673,-5.6865 -3.2673,-10.0543 0,-2.8224 0.4703,-5.2918 1.4027,-7.4088 0.9407,-2.1165 2.3604,-3.7043 4.2752,-4.7626 1.907,-1.0582 3.9901,-1.5873 6.2331,-1.5873 2.8387,0 5.1658,0.7222 6.9632,2.1588 1.8059,1.436 2.9652,3.4689 3.4774,6.115 l -4.3092,0.6635 c -0.4116,-1.7556 -1.1339,-3.0747 -2.1752,-3.9647 -1.0418,-0.882 -2.3017,-1.3275 -3.78,-1.3275 -2.2345,0 -4.0489,0.7984 -5.4431,2.4027 -1.3942,1.5958 -2.0916,4.124 -2.0916,7.5849 0,3.5113 0.672,6.0648 2.0244,7.6606 1.344,1.5874 3.0996,2.3853 5.2669,2.3853 1.7387,0 3.1832,-0.5376 4.3509,-1.6043 1.1673,-1.0667 1.9064,-2.7049 2.2176,-4.9224 z m 8.1643,-21.4024 v -5.0986 h 4.4351 v 5.0986 z m 0,30.9784 v -26.1316 h 4.4351 v 26.1316 z m 9.5252,-13.0703 c 0,-4.8383 1.344,-8.4247 4.0403,-10.7517 2.243,-1.9318 4.9812,-2.9059 8.2152,-2.9059 3.5948,0 6.5351,1.1757 8.8114,3.5361 2.2847,2.3519 3.4186,5.6028 3.4186,9.7522 0,3.3683 -0.5042,6.0139 -1.5122,7.9378 -1.008,1.9318 -2.4779,3.4271 -4.4012,4.4938 -1.9318,1.0667 -4.0319,1.5959 -6.3166,1.5959 -3.6541,0 -6.6109,-1.1673 -8.8702,-3.5192 -2.2599,-2.344 -3.3853,-5.7203 -3.3853,-10.139 z m 4.5525,0 c 0,3.352 0.7313,5.8547 2.1927,7.5183 1.4614,1.6714 3.3012,2.5027 5.5103,2.5027 2.2006,0 4.0319,-0.8397 5.4933,-2.5112 1.4529,-1.6715 2.1842,-4.225 2.1842,-7.6521 0,-3.234 -0.7313,-5.687 -2.2012,-7.35 -1.4698,-1.6631 -3.2927,-2.4948 -5.4763,-2.4948 -2.2091,0 -4.0489,0.8317 -5.5103,2.4863 -1.4614,1.6545 -2.1927,4.1578 -2.1927,7.5008 z m 25.1327,13.0703 v -26.1316 h 3.9811 v 3.7128 c 1.9239,-2.8731 4.6954,-4.3091 8.3162,-4.3091 1.5789,0 3.0239,0.2851 4.3424,0.8481 1.3271,0.5715 2.3102,1.3107 2.9652,2.2345 0.6635,0.9154 1.117,2.0075 1.3858,3.2673 0.1598,0.8233 0.2439,2.2599 0.2439,4.3092 v 16.0688 h -4.4351 v -15.9006 c 0,-1.7979 -0.1682,-3.1503 -0.5127,-4.0488 -0.3444,-0.8905 -0.9577,-1.6043 -1.8313,-2.1334 -0.8815,-0.5376 -1.9064,-0.8064 -3.0911,-0.8064 -1.8895,0 -3.5107,0.6048 -4.8885,1.7974 -1.3688,1.2011 -2.0493,3.4689 -2.0493,6.8204 v 14.2714 z m 45.0815,-3.2255 c -1.6466,1.3942 -3.2255,2.3773 -4.7377,2.9567 -1.5202,0.5715 -3.1499,0.8567 -4.8886,0.8567 -2.8726,0 -5.0732,-0.6969 -6.6187,-2.1001 -1.5376,-1.4027 -2.3102,-3.2001 -2.3102,-5.3759 0,-1.2847 0.2858,-2.4524 0.8736,-3.5107 0.5794,-1.0588 1.344,-1.9069 2.2848,-2.545 0.9492,-0.6387 2.0074,-1.126 3.1916,-1.4535 0.8657,-0.2265 2.1758,-0.4535 3.9314,-0.6636 3.5784,-0.4285 6.2155,-0.9323 7.904,-1.5286 0.0169,-0.6048 0.0254,-0.991 0.0254,-1.1508 0,-1.8059 -0.4202,-3.0827 -1.2599,-3.8134 -1.1259,-1.008 -2.8138,-1.5037 -5.0398,-1.5037 -2.0832,0 -3.6203,0.3613 -4.6203,1.0921 -0.9911,0.7307 -1.7218,2.0244 -2.2006,3.8805 l -4.3256,-0.5963 c 0.3947,-1.8482 1.0413,-3.3514 1.9403,-4.4853 0.8985,-1.1424 2.2091,-2.0245 3.9139,-2.6377 1.7054,-0.6133 3.6795,-0.9238 5.9304,-0.9238 2.2344,0 4.0403,0.2687 5.4346,0.7894 1.3947,0.5291 2.4191,1.1842 3.0826,1.9821 0.6556,0.7984 1.1091,1.7979 1.3778,3.016 0.1429,0.7555 0.2186,2.1164 0.2186,4.0821 v 5.905 c 0,4.1245 0.092,6.7283 0.2852,7.8119 0.1852,1.0916 0.5629,2.1419 1.1175,3.1414 h -4.6282 c -0.454,-0.9154 -0.7562,-1.9905 -0.8821,-3.2255 z m -0.3698,-9.8951 c -1.6128,0.6635 -4.0235,1.2181 -7.232,1.68 -1.8229,0.2603 -3.1166,0.5545 -3.8642,0.882 -0.7556,0.3275 -1.344,0.8064 -1.7472,1.445 -0.4111,0.6297 -0.6211,1.3271 -0.6211,2.0996 0,1.1847 0.4534,2.1673 1.3439,2.9567 0.89,0.7815 2.2006,1.1762 3.9224,1.1762 1.7053,0 3.2255,-0.3698 4.5531,-1.1175 1.327,-0.7471 2.3096,-1.772 2.9313,-3.0657 0.4788,-0.9995 0.7138,-2.4778 0.7138,-4.4266 z m 11.2475,13.1206 v -36.077 h 4.4266 v 36.077 z"
         inkscape:connector-curvature="0" />
      <path
         id="path26-9"
         style="fill:#ef8722;fill-rule:evenodd"
         d="m 69.8273,578.383 14.1594,-36.8573 h 5.2516 l 15.0862,36.8573 H 98.7637 L 94.4644,567.2188 H 79.0525 l -4.0423,11.1642 z m 10.632,-15.1377 h 12.5034 l -3.8531,-10.2031 c -1.1671,-3.0978 -2.0423,-5.6467 -2.6089,-7.6462 -0.4718,2.3685 -1.1327,4.7111 -1.9907,7.0452 z m 31.3566,15.1377 h -4.1961 v -36.8573 h 4.5224 v 13.147 c 1.9135,-2.3941 4.3509,-3.5956 7.3111,-3.5956 1.6477,0 3.2011,0.3347 4.6684,0.9951 1.4673,0.6609 2.6688,1.5966 3.6217,2.7892 0.944,1.2015 1.6904,2.6433 2.2226,4.3421 0.5405,1.6904 0.8064,3.5012 0.8064,5.4236 0,4.5824 -1.1327,8.118 -3.3981,10.6154 -2.257,2.4968 -4.9774,3.741 -8.1441,3.741 -3.1494,0 -5.6206,-1.3125 -7.4143,-3.9475 z m -0.0511,-13.55 c 0,3.201 0.4374,5.5092 1.3042,6.9337 1.4246,2.3342 3.3553,3.5013 5.7838,3.5013 1.9824,0 3.69,-0.858 5.1318,-2.5828 1.4418,-1.7165 2.1627,-4.2738 2.1627,-7.6807 0,-3.4841 -0.6954,-6.0585 -2.0767,-7.7146 -1.3818,-1.656 -3.0551,-2.4884 -5.0119,-2.4884 -1.9823,0 -3.6899,0.858 -5.1317,2.5745 -1.4418,1.7159 -2.1622,4.2044 -2.1622,7.457 z m 24.5339,-18.0985 v -5.2088 h 4.5313 v 5.2088 z m 0,31.6485 v -26.6965 h 4.5313 v 26.6965 z m 29.6917,-8.5986 4.6767,0.575 c -0.7376,2.7376 -2.1022,4.857 -4.0929,6.3676 -1.9995,1.5017 -4.5485,2.2565 -7.6463,2.2565 -3.9047,0 -7.0025,-1.201 -9.2851,-3.6039 -2.2914,-2.403 -3.4324,-5.7755 -3.4324,-10.1176 0,-4.4969 1.1582,-7.9809 3.4668,-10.4605 2.317,-2.4801 5.3121,-3.7244 9.0021,-3.7244 3.5695,0 6.4875,1.2182 8.744,3.6472 2.2659,2.4286 3.3986,5.8522 3.3986,10.2547 0,0.2747 -0.009,0.6776 -0.0261,1.2098 h -19.9087 c 0.1631,2.9347 0.9955,5.1834 2.4884,6.7367 1.4934,1.5617 3.347,2.3425 5.578,2.3425 1.6565,0 3.0722,-0.4378 4.2482,-1.313 1.1754,-0.8669 2.1022,-2.2571 2.7887,-4.1706 z m -14.8542,-7.32 h 14.9058 c -0.1976,-2.2398 -0.7725,-3.9302 -1.7076,-5.0457 -1.4418,-1.742 -3.3126,-2.6172 -5.604,-2.6172 -2.0767,0 -3.8271,0.6948 -5.2433,2.085 -1.4158,1.3902 -2.1966,3.2526 -2.3509,5.5779 z m 25.1693,15.9186 v -26.6965 h 4.0673 v 4.0418 c 1.0384,-1.888 1.9996,-3.1411 2.8836,-3.7416 0.8752,-0.601 1.8447,-0.9096 2.9003,-0.9096 1.5278,0 3.0722,0.489 4.6511,1.4585 l -1.5616,4.2049 c -1.0983,-0.6604 -2.2055,-0.9867 -3.3126,-0.9867 -0.9956,0 -1.8791,0.3003 -2.6688,0.8924 -0.7897,0.601 -1.3475,1.4246 -1.6821,2.4801 -0.5062,1.605 -0.7548,3.3642 -0.7548,5.2777 v 13.979 z m 27.0739,-4.0506 0.6521,3.999 c -1.2697,0.2664 -2.4113,0.4035 -3.4152,0.4035 -1.6477,0 -2.9175,-0.2575 -3.8271,-0.7809 -0.9012,-0.515 -1.5361,-1.2015 -1.9052,-2.0511 -0.369,-0.8408 -0.5577,-2.6256 -0.5577,-5.3376 v -15.3609 h -3.3209 v -3.5179 h 3.3209 v -6.6163 l 4.5052,-2.7121 v 9.3284 h 4.5479 v 3.5179 h -4.5479 v 15.61 c 0,1.2958 0.0771,2.1194 0.2314,2.4885 0.1632,0.369 0.4207,0.6609 0.7814,0.884 0.3602,0.2143 0.8752,0.3258 1.5445,0.3258 0.5061,0 1.1671,-0.0599 1.9906,-0.1803 z m 21.8484,0.7553 c -1.6821,1.4245 -3.2954,2.4285 -4.8398,3.0206 -1.5534,0.5838 -3.2183,0.8752 -4.9942,0.8752 -2.9352,0 -5.1833,-0.712 -6.7622,-2.145 -1.5705,-1.4334 -2.3602,-3.2698 -2.3602,-5.4924 0,-1.3125 0.2919,-2.5057 0.8929,-3.5868 0.5921,-1.0816 1.3729,-1.9479 2.3341,-2.6 0.9696,-0.6526 2.0507,-1.1504 3.2605,-1.485 0.884,-0.2315 2.2226,-0.4634 4.0163,-0.6777 3.6555,-0.4378 6.3504,-0.9528 8.0752,-1.5616 0.0172,-0.6182 0.0256,-1.0128 0.0256,-1.176 0,-1.8447 -0.429,-3.1494 -1.287,-3.8958 -1.1499,-1.03 -2.8747,-1.5362 -5.149,-1.5362 -2.1282,0 -3.6988,0.3691 -4.7199,1.1155 -1.0123,0.747 -1.7593,2.0683 -2.2482,3.9647 l -4.4192,-0.6094 c 0.4029,-1.888 1.0639,-3.4236 1.9823,-4.5823 0.918,-1.1671 2.2566,-2.0684 3.9986,-2.6944 1.742,-0.6265 3.7588,-0.944 6.0585,-0.944 2.2826,0 4.1278,0.2747 5.5524,0.8064 1.4246,0.5405 2.4713,1.2104 3.1494,2.0256 0.6693,0.8152 1.1327,1.8364 1.4074,3.0806 0.1455,0.772 0.2231,2.1622 0.2231,4.1706 v 6.0324 c 0,4.2139 0.0944,6.8738 0.2914,7.981 0.1892,1.1154 0.575,2.1882 1.1416,3.2093 h -4.7283 c -0.4634,-0.9351 -0.7725,-2.0339 -0.9013,-3.2953 z m -0.3774,-10.1087 c -1.6477,0.6776 -4.1106,1.2442 -7.3888,1.7159 -1.8619,0.2664 -3.1838,0.5666 -3.9474,0.9013 -0.772,0.3346 -1.373,0.8236 -1.7848,1.4762 -0.4206,0.6432 -0.6349,1.3558 -0.6349,2.1449 0,1.2104 0.4634,2.2143 1.373,3.0207 0.9096,0.798 2.2482,1.2015 4.0074,1.2015 1.742,0 3.2954,-0.3774 4.6512,-1.141 1.3557,-0.7642 2.3597,-1.8109 2.9951,-3.1322 0.4889,-1.0212 0.7292,-2.5318 0.7292,-4.5224 z m 25.6926,23.6847 -0.5061,-4.2482 c 0.9956,0.2664 1.8536,0.4034 2.5917,0.4034 1.0039,0 1.8103,-0.1714 2.4113,-0.5061 0.6094,-0.3346 1.0983,-0.798 1.4845,-1.4074 0.2919,-0.4462 0.7465,-1.5705 1.3814,-3.3636 0.086,-0.2575 0.2236,-0.6182 0.4034,-1.1072 l -10.1259,-26.7481 h 4.8743 l 5.5607,15.4546 c 0.712,1.9652 1.3647,4.0252 1.9307,6.1873 0.5234,-2.0767 1.1416,-4.1017 1.8625,-6.0841 l 5.7062,-15.5578 h 4.5224 l -10.1515,27.1516 c -1.0899,2.9346 -1.9396,4.9514 -2.54,6.058 -0.8069,1.4934 -1.7249,2.5833 -2.7632,3.2782 -1.0472,0.6953 -2.2831,1.0472 -3.7244,1.0472 -0.8757,0 -1.8452,-0.1887 -2.918,-0.5578 z m 57.6758,-13.576 c -1.6821,1.4245 -3.2954,2.4285 -4.8399,3.0206 -1.5533,0.5838 -3.2182,0.8752 -4.9941,0.8752 -2.9352,0 -5.1833,-0.712 -6.7622,-2.145 -1.5706,-1.4334 -2.3603,-3.2698 -2.3603,-5.4924 0,-1.3125 0.2919,-2.5057 0.8929,-3.5868 0.5922,-1.0816 1.373,-1.9479 2.3342,-2.6 0.9695,-0.6526 2.0506,-1.1504 3.2605,-1.485 0.884,-0.2315 2.2226,-0.4634 4.0162,-0.6777 3.6556,-0.4378 6.3505,-0.9528 8.0753,-1.5616 0.0172,-0.6182 0.0255,-1.0128 0.0255,-1.176 0,-1.8447 -0.429,-3.1494 -1.2869,-3.8958 -1.1499,-1.03 -2.8748,-1.5362 -5.149,-1.5362 -2.1283,0 -3.6988,0.3691 -4.7199,1.1155 -1.0123,0.747 -1.7593,2.0683 -2.2482,3.9647 l -4.4192,-0.6094 c 0.4029,-1.888 1.0639,-3.4236 1.9823,-4.5823 0.918,-1.1671 2.2565,-2.0684 3.9986,-2.6944 1.742,-0.6265 3.7587,-0.944 6.0585,-0.944 2.2826,0 4.1278,0.2747 5.5524,0.8064 1.4246,0.5405 2.4713,1.2104 3.1494,2.0256 0.6693,0.8152 1.1327,1.8364 1.4074,3.0806 0.1454,0.772 0.2231,2.1622 0.2231,4.1706 v 6.0324 c 0,4.2139 0.0944,6.8738 0.2914,7.981 0.1892,1.1154 0.5749,2.1882 1.1415,3.2093 H 309.12 c -0.4634,-0.9351 -0.7725,-2.0339 -0.9012,-3.2953 z m -0.3774,-10.1087 c -1.6477,0.6776 -4.1106,1.2442 -7.3888,1.7159 -1.8619,0.2664 -3.1838,0.5666 -3.9474,0.9013 -0.772,0.3346 -1.373,0.8236 -1.7848,1.4762 -0.4207,0.6432 -0.6349,1.3558 -0.6349,2.1449 0,1.2104 0.4634,2.2143 1.373,3.0207 0.9096,0.798 2.2482,1.2015 4.0074,1.2015 1.742,0 3.2954,-0.3774 4.6511,-1.141 1.3558,-0.7642 2.3598,-1.8109 2.9952,-3.1322 0.4889,-1.0212 0.7292,-2.5318 0.7292,-4.5224 z m 26.4735,13.404 v -36.8573 h 12.692 c 2.8664,0 5.0546,0.1803 6.5647,0.5322 2.111,0.4806 3.913,1.3646 5.4064,2.6344 1.9396,1.6477 3.3981,3.7415 4.3593,6.2988 0.97,2.5573 1.4501,5.4747 1.4501,8.7618 0,2.7975 -0.3258,5.2777 -0.9868,7.4398 -0.652,2.1627 -1.4845,3.9564 -2.514,5.3721 -1.0216,1.4157 -2.1371,2.5317 -3.3553,3.3381 -1.2103,0.8152 -2.6777,1.4334 -4.3941,1.8536 -1.7249,0.4206 -3.6983,0.6265 -5.921,0.6265 z m 4.8742,-4.3509 h 7.8694 c 2.4285,0 4.342,-0.2231 5.7239,-0.6776 1.3813,-0.4551 2.4801,-1.09 3.3037,-1.9141 1.1587,-1.1499 2.0595,-2.7115 2.7032,-4.6595 0.6438,-1.9567 0.9695,-4.3165 0.9695,-7.1052 0,-3.8531 -0.6348,-6.8138 -1.8963,-8.8821 -1.2703,-2.0767 -2.8064,-3.458 -4.6167,-4.1617 -1.3047,-0.5062 -3.4158,-0.7553 -6.3077,-0.7553 h -7.749 z m 31.7512,-27.2976 v -5.2088 h 4.5312 v 5.2088 z m 0,31.6485 v -26.6965 h 4.5312 v 26.6965 z m 9.6114,-7.972 4.4708,-0.7037 c 0.2486,1.7936 0.9523,3.1666 2.1022,4.1278 1.1415,0.9523 2.746,1.4329 4.8143,1.4329 2.0767,0 3.6211,-0.429 4.6256,-1.2703 1.0039,-0.8491 1.5101,-1.8447 1.5101,-2.9774 0,-1.03 -0.4462,-1.828 -1.3386,-2.4202 -0.6177,-0.4034 -2.1627,-0.9096 -4.6256,-1.5273 -3.3121,-0.8413 -5.6207,-1.5622 -6.8993,-2.1798 -1.2787,-0.6094 -2.2571,-1.459 -2.9175,-2.5401 -0.6609,-1.0811 -0.9956,-2.2742 -0.9956,-3.5784 0,-1.1927 0.2747,-2.2915 0.8236,-3.3037 0.5411,-1.0212 1.2875,-1.8625 2.2226,-2.5318 0.7037,-0.515 1.6649,-0.9612 2.8747,-1.3213 1.2187,-0.3607 2.5234,-0.5406 3.9136,-0.5406 2.0939,0 3.9303,0.3086 5.5175,0.9096 1.5877,0.6005 2.7548,1.4157 3.5101,2.4457 0.7548,1.0384 1.2698,2.4114 1.5528,4.1362 l -4.4192,0.6093 c -0.2059,-1.373 -0.7897,-2.4457 -1.7503,-3.2182 -0.9612,-0.772 -2.3259,-1.1582 -4.0851,-1.1582 -2.0767,0 -3.5612,0.343 -4.4453,1.0295 -0.8923,0.6864 -1.3385,1.4933 -1.3385,2.4113 0,0.5921 0.1887,1.116 0.5577,1.5877 0.3691,0.489 0.944,0.8841 1.7337,1.2099 0.4545,0.1631 1.7848,0.5494 3.9985,1.1498 3.2011,0.8585 5.4325,1.5534 6.694,2.1028 1.2698,0.5405 2.2654,1.3386 2.9862,2.3769 0.7209,1.0383 1.0811,2.3253 1.0811,3.8703 0,1.5101 -0.4462,2.9263 -1.3213,4.2649 -0.8841,1.3303 -2.1539,2.3597 -3.8104,3.0895 -1.656,0.7292 -3.5357,1.0894 -5.6296,1.0894 -3.4752,0 -6.1184,-0.7204 -7.9376,-2.1622 -1.8192,-1.4417 -2.9774,-3.5784 -3.4752,-6.4103 z m 37.4318,3.9214 0.6521,3.999 c -1.2698,0.2664 -2.4114,0.4035 -3.4153,0.4035 -1.6477,0 -2.9175,-0.2575 -3.8271,-0.7809 -0.9012,-0.515 -1.5361,-1.2015 -1.9051,-2.0511 -0.3691,-0.8408 -0.5578,-2.6256 -0.5578,-5.3376 v -15.3609 h -3.3209 v -3.5179 h 3.3209 v -6.6163 l 4.5052,-2.7121 v 9.3284 h 4.548 v 3.5179 h -4.548 v 15.61 c 0,1.2958 0.0772,2.1194 0.2315,2.4885 0.1631,0.369 0.4206,0.6609 0.7813,0.884 0.3602,0.2143 0.8752,0.3258 1.5445,0.3258 0.5061,0 1.1671,-0.0599 1.9907,-0.1803 z m 21.8483,0.7553 c -1.6821,1.4245 -3.2953,2.4285 -4.8398,3.0206 -1.5533,0.5838 -3.2182,0.8752 -4.9941,0.8752 -2.9352,0 -5.1834,-0.712 -6.7623,-2.145 -1.5705,-1.4334 -2.3602,-3.2698 -2.3602,-5.4924 0,-1.3125 0.2919,-2.5057 0.8929,-3.5868 0.5921,-1.0816 1.373,-1.9479 2.3342,-2.6 0.9695,-0.6526 2.0506,-1.1504 3.2604,-1.485 0.8841,-0.2315 2.2226,-0.4634 4.0163,-0.6777 3.6555,-0.4378 6.3504,-0.9528 8.0752,-1.5616 0.0172,-0.6182 0.0256,-1.0128 0.0256,-1.176 0,-1.8447 -0.429,-3.1494 -1.287,-3.8958 -1.1499,-1.03 -2.8747,-1.5362 -5.1489,-1.5362 -2.1283,0 -3.6989,0.3691 -4.72,1.1155 -1.0123,0.747 -1.7592,2.0683 -2.2482,3.9647 l -4.4192,-0.6094 c 0.403,-1.888 1.0639,-3.4236 1.9824,-4.5823 0.9179,-1.1671 2.2565,-2.0684 3.9985,-2.6944 1.742,-0.6265 3.7588,-0.944 6.0586,-0.944 2.2825,0 4.1278,0.2747 5.5524,0.8064 1.4245,0.5405 2.4712,1.2104 3.1494,2.0256 0.6693,0.8152 1.1327,1.8364 1.4074,3.0806 0.1454,0.772 0.2231,2.1622 0.2231,4.1706 v 6.0324 c 0,4.2139 0.0943,6.8738 0.2913,7.981 0.1892,1.1154 0.575,2.1882 1.1416,3.2093 h -4.7283 c -0.4634,-0.9351 -0.7725,-2.0339 -0.9013,-3.2953 z m -0.3774,-10.1087 c -1.6476,0.6776 -4.1106,1.2442 -7.3887,1.7159 -1.862,0.2664 -3.1839,0.5666 -3.9475,0.9013 -0.772,0.3346 -1.373,0.8236 -1.7848,1.4762 -0.4206,0.6432 -0.6349,1.3558 -0.6349,2.1449 0,1.2104 0.4634,2.2143 1.373,3.0207 0.9096,0.798 2.2482,1.2015 4.0074,1.2015 1.7421,0 3.2954,-0.3774 4.6512,-1.141 1.3558,-0.7642 2.3597,-1.8109 2.9951,-3.1322 0.4889,-1.0212 0.7292,-2.5318 0.7292,-4.5224 z m 11.5933,13.404 v -26.6965 h 4.0678 v 3.7926 c 1.9652,-2.9347 4.7971,-4.402 8.4954,-4.402 1.6133,0 3.0895,0.2914 4.4369,0.8663 1.3558,0.5838 2.3598,1.3391 3.0291,2.2831 0.6781,0.9352 1.1415,2.0507 1.4157,3.3381 0.1631,0.8408 0.2491,2.3082 0.2491,4.402 v 16.4164 h -4.5312 v -16.2443 c 0,-1.8369 -0.1715,-3.2183 -0.5234,-4.1367 -0.3518,-0.9096 -0.9784,-1.6388 -1.8707,-2.1794 -0.9008,-0.5494 -1.948,-0.8241 -3.1578,-0.8241 -1.9307,0 -3.5873,0.6182 -4.9947,1.8364 -1.3985,1.2275 -2.0938,3.5445 -2.0938,6.9681 v 14.58 z m 46.0564,-9.7829 4.4453,0.5838 c -0.4806,3.0634 -1.7248,5.4664 -3.7327,7.1996 -1.9996,1.7337 -4.4625,2.6 -7.3805,2.6 -3.6467,0 -6.5902,-1.1926 -8.8045,-3.5784 -2.2221,-2.3853 -3.3381,-5.8094 -3.3381,-10.2718 0,-2.8831 0.4806,-5.4065 1.4335,-7.5687 0.9612,-2.1626 2.4113,-3.7843 4.3676,-4.8659 1.9479,-1.081 4.0762,-1.6216 6.3676,-1.6216 2.9003,0 5.2777,0.7381 7.1141,2.2054 1.8447,1.4674 3.029,3.5441 3.5523,6.2473 l -4.402,0.6776 c -0.4206,-1.7931 -1.1587,-3.1405 -2.2226,-4.0501 -1.0639,-0.9013 -2.3514,-1.3558 -3.8614,-1.3558 -2.2831,0 -4.1367,0.8152 -5.5608,2.454 -1.4246,1.6305 -2.1371,4.2133 -2.1371,7.749 0,3.5873 0.6865,6.1956 2.0683,7.8261 1.373,1.6222 3.1666,2.4374 5.3804,2.4374 1.7764,0 3.2526,-0.5494 4.4453,-1.6393 1.1926,-1.0895 1.9479,-2.7632 2.2653,-5.0286 z m 8.3411,-21.8656 v -5.2088 h 4.5313 v 5.2088 z m 0,31.6485 v -26.6965 h 4.5313 v 26.6965 z m 28.8421,-3.2953 c -1.6821,1.4245 -3.2954,2.4285 -4.8399,3.0206 -1.5533,0.5838 -3.2182,0.8752 -4.9941,0.8752 -2.9352,0 -5.1834,-0.712 -6.7622,-2.145 -1.5706,-1.4334 -2.3603,-3.2698 -2.3603,-5.4924 0,-1.3125 0.2919,-2.5057 0.8929,-3.5868 0.5922,-1.0816 1.373,-1.9479 2.3342,-2.6 0.9695,-0.6526 2.0506,-1.1504 3.2605,-1.485 0.884,-0.2315 2.2226,-0.4634 4.0162,-0.6777 3.6556,-0.4378 6.3505,-0.9528 8.0753,-1.5616 0.0172,-0.6182 0.0255,-1.0128 0.0255,-1.176 0,-1.8447 -0.429,-3.1494 -1.2869,-3.8958 -1.1499,-1.03 -2.8748,-1.5362 -5.149,-1.5362 -2.1283,0 -3.6988,0.3691 -4.72,1.1155 -1.0122,0.747 -1.7592,2.0683 -2.2481,3.9647 l -4.4192,-0.6094 c 0.4029,-1.888 1.0639,-3.4236 1.9823,-4.5823 0.9179,-1.1671 2.2565,-2.0684 3.9986,-2.6944 1.742,-0.6265 3.7587,-0.944 6.0585,-0.944 2.2826,0 4.1278,0.2747 5.5524,0.8064 1.4246,0.5405 2.4713,1.2104 3.1494,2.0256 0.6693,0.8152 1.1327,1.8364 1.4074,3.0806 0.1454,0.772 0.2231,2.1622 0.2231,4.1706 v 6.0324 c 0,4.2139 0.0943,6.8738 0.2914,7.981 0.1892,1.1154 0.5749,2.1882 1.1415,3.2093 h -4.7283 c -0.4634,-0.9351 -0.7725,-2.0339 -0.9012,-3.2953 z m -0.3774,-10.1087 c -1.6477,0.6776 -4.1106,1.2442 -7.3888,1.7159 -1.8619,0.2664 -3.1838,0.5666 -3.9474,0.9013 -0.772,0.3346 -1.373,0.8236 -1.7848,1.4762 -0.4207,0.6432 -0.6349,1.3558 -0.6349,2.1449 0,1.2104 0.4634,2.2143 1.373,3.0207 0.9096,0.798 2.2481,1.2015 4.0074,1.2015 1.742,0 3.2953,-0.3774 4.6511,-1.141 1.3558,-0.7642 2.3597,-1.8109 2.9952,-3.1322 0.4889,-1.0212 0.7292,-2.5318 0.7292,-4.5224 z"
         inkscape:connector-curvature="0" />
    </g>
  </g>
</svg>
